<svg xmlns="http://www.w3.org/2000/svg" xmlns:xlink="http://www.w3.org/1999/xlink" id="Layer_1" x="0px" y="0px" viewBox="0 0 24 24" style="enable-background:new 0 0 24 24;" xml:space="preserve"><title>buildings-modern</title><g>	<path d="M0.75,24C0.336,24,0,23.664,0,23.25s0.336-0.75,0.75-0.75H1.5V6C1.499,5.448,1.802,4.941,2.289,4.679L3.75,3.893V0.75  C3.75,0.336,4.086,0,4.5,0s0.75,0.336,0.75,0.75v2.336l5.289-2.846c0.217-0.117,0.463-0.179,0.709-0.179  c0.553,0,1.06,0.302,1.322,0.788c0.117,0.217,0.179,0.462,0.18,0.708V22.5h1.5V9c-0.001-0.332,0.112-0.661,0.318-0.925  C14.854,7.71,15.285,7.5,15.75,7.5c0.337,0,0.656,0.11,0.921,0.317l2.828,2.2V8.25c0-0.414,0.336-0.75,0.75-0.75S21,7.836,21,8.25  v2.933l0.92,0.716c0.368,0.286,0.58,0.718,0.58,1.184V22.5h0.75c0.414,0,0.75,0.336,0.75,0.75S23.664,24,23.25,24H0.75z M21,22.5  v-9.417L15.75,9l0,3.75h1.5c0.414,0,0.75,0.336,0.75,0.75s-0.336,0.75-0.75,0.75h-1.5v1.5h3c0.414,0,0.75,0.336,0.75,0.75  s-0.336,0.75-0.75,0.75h-3v5.25H21z M11.25,22.5V12H6c-0.414,0-0.75-0.336-0.75-0.75S5.586,10.5,6,10.5h5.25V9H7.5  C7.086,9,6.75,8.664,6.75,8.25S7.086,7.5,7.5,7.5h3.75V1.558L3,6l0,16.5h2.25v-2.25C5.25,19.009,6.259,18,7.5,18  s2.25,1.009,2.25,2.25v2.25H11.25z M8.25,22.5v-2.25c0-0.414-0.336-0.75-0.75-0.75s-0.75,0.336-0.75,0.75v2.25H8.25z"></path></g></svg>