<svg xmlns="http://www.w3.org/2000/svg" xmlns:xlink="http://www.w3.org/1999/xlink" id="Layer_1" x="0px" y="0px" viewBox="0 0 24 24" style="enable-background:new 0 0 24 24;" xml:space="preserve"><title>building-modern</title><g>	<path d="M0.75,24C0.336,24,0,23.664,0,23.25s0.336-0.75,0.75-0.75H1.5V10.75C1.5,9.785,2.285,9,3.25,9h8.5  c0.965,0,1.75,0.785,1.75,1.75v12.5c0,0.414-0.336,0.75-0.75,0.75H0.75z M12,22.5V10.75c0-0.138-0.112-0.25-0.25-0.25h-8.5  C3.112,10.5,3,10.612,3,10.75V12h1.5c0.414,0,0.75,0.336,0.75,0.75S4.914,13.5,4.5,13.5H3v9h1.5v-2.25C4.5,19.009,5.509,18,6.75,18  S9,19.009,9,20.25v2.25H12z M7.5,22.5v-2.25c0-0.414-0.336-0.75-0.75-0.75S6,19.836,6,20.25v2.25H7.5z"></path>	<path d="M15.75,24C15.336,24,15,23.664,15,23.25v-4.5c0-1.241,1.009-2.25,2.25-2.25s2.25,1.009,2.25,2.25v3.75H21V2.25  c0-0.414-0.336-0.75-0.75-0.75h-9c-0.414,0-0.75,0.336-0.75,0.75V3h3.75C14.664,3,15,3.336,15,3.75S14.664,4.5,14.25,4.5H10.5V6  h0.75C11.664,6,12,6.336,12,6.75S11.664,7.5,11.25,7.5h-1.5C9.336,7.5,9,7.164,9,6.75v-4.5C9,1.009,10.009,0,11.25,0h9  c1.241,0,2.25,1.009,2.25,2.25V22.5h0.75c0.414,0,0.75,0.336,0.75,0.75S23.664,24,23.25,24H15.75z M18,22.5v-3.75  c0-0.414-0.336-0.75-0.75-0.75s-0.75,0.336-0.75,0.75v3.75H18z"></path></g></svg>