<svg xmlns="http://www.w3.org/2000/svg" xmlns:xlink="http://www.w3.org/1999/xlink" id="Layer_1" x="0px" y="0px" viewBox="0 0 24 24" style="enable-background:new 0 0 24 24;" xml:space="preserve"><title>building-daylight</title><g>	<path d="M7.207,24c-0.414,0-0.75-0.336-0.75-0.75v-9.5c0-0.965,0.785-1.75,1.75-1.75h7c0.965,0,1.75,0.785,1.75,1.75v8.75h5.246  c0.414,0,0.75,0.336,0.75,0.75S22.616,24,22.203,24H7.207z M15.457,22.5v-6h-1.504c-0.414,0-0.75-0.336-0.75-0.75  S13.539,15,13.953,15h1.504v-1.25c0-0.138-0.112-0.25-0.25-0.25h-7c-0.138,0-0.25,0.112-0.25,0.25v8.75H9.45v-2.25  c0-1.241,1.009-2.25,2.25-2.25s2.25,1.009,2.25,2.25v2.25H15.457z M12.45,22.5v-2.25c0-0.414-0.336-0.75-0.75-0.75  c-0.414,0-0.75,0.336-0.75,0.75v2.25H12.45z"></path>	<path d="M1.203,24c-0.414,0-0.75-0.336-0.75-0.75s0.336-0.75,0.75-0.75H1.95V5.25C1.95,4.009,2.959,3,4.2,3h4.5  c1.241,0,2.25,1.009,2.25,2.25V6.7c0.002,0.012,0.003,0.031,0.003,0.05c0,0.012-0.001,0.032-0.003,0.049V9.75  c0,0.414-0.336,0.75-0.75,0.75H8.7c-0.414,0-0.75-0.336-0.75-0.75S8.286,9,8.7,9h0.75V7.5H7.203c-0.414,0-0.75-0.336-0.75-0.75  S6.789,6,7.203,6H9.45V5.25c0-0.414-0.336-0.75-0.75-0.75H4.2c-0.414,0-0.75,0.336-0.75,0.75V22.5H4.2  c0.414,0,0.75,0.336,0.75,0.75S4.613,24,4.2,24H1.203z"></path>	<path d="M18.453,9c-1.654,0-3-1.346-3-3s1.346-3,3-3s3,1.346,3,3S20.107,9,18.453,9z M18.453,4.5c-0.827,0-1.5,0.673-1.5,1.5  s0.673,1.5,1.5,1.5s1.5-0.673,1.5-1.5S19.28,4.5,18.453,4.5z"></path>	<path d="M18.453,2.25c-0.414,0-0.75-0.336-0.75-0.75V0.75c0-0.414,0.336-0.75,0.75-0.75s0.75,0.336,0.75,0.75V1.5  C19.203,1.914,18.866,2.25,18.453,2.25z"></path>	<path d="M14.556,4.5c-0.131,0-0.261-0.035-0.375-0.101l-0.649-0.375C13.173,3.818,13.05,3.358,13.257,3  c0.133-0.231,0.382-0.375,0.65-0.375c0.131,0,0.261,0.035,0.375,0.101l0.649,0.375c0.358,0.207,0.481,0.666,0.274,1.025  C15.072,4.356,14.823,4.5,14.556,4.5z"></path>	<path d="M13.907,9.375c-0.267,0-0.516-0.144-0.649-0.375c-0.207-0.359-0.084-0.818,0.274-1.025l0.649-0.375  C14.295,7.535,14.424,7.5,14.556,7.5c0.267,0,0.516,0.144,0.65,0.375c0.207,0.358,0.084,0.818-0.274,1.025l-0.649,0.375  C14.168,9.34,14.038,9.375,13.907,9.375z"></path>	<path d="M18.453,12c-0.414,0-0.75-0.336-0.75-0.75V10.5c0-0.414,0.336-0.75,0.75-0.75s0.75,0.336,0.75,0.75v0.75  C19.203,11.664,18.866,12,18.453,12z"></path>	<path d="M22.999,9.375c-0.131,0-0.26-0.035-0.375-0.1L21.975,8.9c-0.358-0.207-0.481-0.667-0.274-1.025  C21.833,7.644,22.082,7.5,22.35,7.5c0.131,0,0.26,0.035,0.375,0.1l0.65,0.375C23.733,8.182,23.856,8.642,23.649,9  C23.516,9.231,23.267,9.375,22.999,9.375z"></path>	<path d="M22.35,4.5c-0.267,0-0.516-0.144-0.65-0.376c-0.207-0.358-0.083-0.817,0.275-1.024l0.65-0.375  c0.114-0.066,0.243-0.1,0.375-0.1c0.268,0,0.517,0.144,0.65,0.376c0.207,0.358,0.083,0.817-0.275,1.024L22.725,4.4  C22.61,4.465,22.481,4.5,22.35,4.5z"></path></g></svg>