<svg xmlns="http://www.w3.org/2000/svg" xmlns:xlink="http://www.w3.org/1999/xlink" id="Layer_1" x="0px" y="0px" viewBox="0 0 24 24" style="enable-background:new 0 0 24 24;" xml:space="preserve"><title>building-nature</title><g>	<path d="M0.749,24c-0.414,0-0.75-0.336-0.75-0.75s0.336-0.75,0.75-0.75h0.75v-15h-0.75c-0.262,0-0.5-0.133-0.638-0.356  c-0.138-0.222-0.15-0.495-0.033-0.73l1.835-3.671C2.297,1.976,3.068,1.5,3.926,1.5h4.323V0.75C8.249,0.336,8.585,0,8.999,0  s0.75,0.336,0.75,0.75V1.5h1.323c0.858,0,1.629,0.476,2.013,1.243l1.835,3.671c0.117,0.234,0.105,0.507-0.033,0.729  C14.749,7.367,14.511,7.5,14.249,7.5h-0.75v15h4.5v-1.629c-0.885-0.314-1.5-1.162-1.5-2.121c0-0.025,0.001-0.05,0.004-0.074  c0.179-1.923,0.709-3.779,1.575-5.511c0.128-0.256,0.385-0.415,0.671-0.415s0.542,0.159,0.671,0.414  c0.866,1.733,1.397,3.589,1.576,5.517c0.002,0.02,0.003,0.044,0.003,0.069c0,0.96-0.615,1.808-1.5,2.121V22.5h3.75  c0.414,0,0.75,0.336,0.75,0.75S23.663,24,23.249,24H0.749z M11.999,22.5v-15h-9v15h2.25v-2.25c0-1.241,1.009-2.25,2.25-2.25  s2.25,1.009,2.25,2.25v2.25H11.999z M8.249,22.5v-2.25c0-0.414-0.336-0.75-0.75-0.75s-0.75,0.336-0.75,0.75v2.25H8.249z   M17.999,18.779c0.016,0.399,0.348,0.721,0.75,0.721s0.734-0.322,0.75-0.721c-0.111-1.155-0.362-2.285-0.75-3.372  C18.362,16.494,18.11,17.624,17.999,18.779z M13.036,6l-1.292-2.586C11.615,3.159,11.358,3,11.072,3H3.926  C3.64,3,3.383,3.159,3.255,3.415L1.962,6H13.036z"></path>	<path d="M5.249,16.5c-0.414,0-0.75-0.336-0.75-0.75S4.835,15,5.249,15h4.5c0.414,0,0.75,0.336,0.75,0.75s-0.336,0.75-0.75,0.75  H5.249z"></path>	<path d="M5.249,13.5c-0.414,0-0.75-0.336-0.75-0.75S4.835,12,5.249,12h4.5c0.414,0,0.75,0.336,0.75,0.75s-0.336,0.75-0.75,0.75  H5.249z"></path>	<path d="M5.249,10.5c-0.414,0-0.75-0.336-0.75-0.75S4.835,9,5.249,9h4.5c0.414,0,0.75,0.336,0.75,0.75s-0.336,0.75-0.75,0.75H5.249  z"></path></g></svg>