<svg xmlns="http://www.w3.org/2000/svg" xmlns:xlink="http://www.w3.org/1999/xlink" id="Layer_1" x="0px" y="0px" viewBox="0 0 24 24" style="enable-background:new 0 0 24 24;" xml:space="preserve"><title>house-nature</title><g>	<path d="M0.751,23.999c-0.414,0-0.75-0.336-0.75-0.75s0.336-0.75,0.75-0.75h0.75v-5.625l-0.3,0.225  c-0.131,0.098-0.286,0.15-0.45,0.15c-0.235,0-0.459-0.112-0.6-0.3c-0.248-0.331-0.181-0.802,0.15-1.05l6-4.5  c0.131-0.098,0.286-0.15,0.45-0.15s0.319,0.052,0.45,0.15l6,4.5c0.331,0.248,0.398,0.719,0.15,1.05c-0.141,0.188-0.365,0.3-0.6,0.3  c-0.163,0-0.318-0.052-0.449-0.15l-0.301-0.225v5.625h6v-1.577c-1.732-0.35-3-1.874-3-3.673c0-4.618,2.953-10.584,3.079-10.835  c0.128-0.256,0.385-0.415,0.671-0.415s0.543,0.159,0.671,0.415c0.126,0.252,3.079,6.217,3.079,10.835c0,1.799-1.268,3.323-3,3.673  v1.577h3.75c0.414,0,0.75,0.336,0.75,0.75s-0.336,0.75-0.75,0.75H0.751z M10.501,22.499v-6.75l-3.75-2.812l-3.75,2.812v6.75h1.5  v-2.25c0-1.241,1.009-2.25,2.25-2.25s2.25,1.009,2.25,2.25v2.25H10.501z M7.501,22.499v-2.25c0-0.414-0.336-0.75-0.75-0.75  s-0.75,0.336-0.75,0.75v2.25H7.501z M18.751,8.563c-0.869,2.037-2.25,5.737-2.25,8.686c0,1.241,1.009,2.25,2.25,2.25  s2.25-1.009,2.25-2.25C21.001,14.298,19.62,10.599,18.751,8.563z"></path>	<path d="M3.743,7.499c-1.673,0-3.156-1.126-3.606-2.738c-0.555-1.989,0.612-4.059,2.601-4.614c0.332-0.092,0.672-0.139,1.012-0.139  c0.638,0,1.272,0.167,1.834,0.484c0.565,0.319,1.03,0.768,1.36,1.312c0.409-0.2,0.858-0.305,1.317-0.305  c1.666,0.007,3.006,1.358,3,3.012c-0.007,1.648-1.352,2.988-3,2.988H3.743z M3.748,1.508c-0.204,0-0.408,0.028-0.607,0.084  C1.948,1.924,1.249,3.165,1.581,4.357c0.27,0.967,1.159,1.642,2.162,1.642c0,0,4.513,0,4.515,0c0.827-0.003,1.497-0.672,1.5-1.494  c0.002-0.401-0.153-0.778-0.435-1.062C9.042,3.158,8.666,3.001,8.266,2.999c0,0,0,0,0,0c-0.419,0-0.811,0.17-1.093,0.467  C7.031,3.614,6.833,3.699,6.628,3.699c-0.061,0-0.121-0.007-0.18-0.022C6.186,3.612,5.979,3.41,5.906,3.15  c-0.161-0.578-0.538-1.058-1.06-1.352C4.509,1.608,4.129,1.508,3.748,1.508z"></path></g></svg>