<svg xmlns="http://www.w3.org/2000/svg" xmlns:xlink="http://www.w3.org/1999/xlink" id="Layer_1" x="0px" y="0px" viewBox="0 0 24 24" style="enable-background:new 0 0 24 24;" xml:space="preserve"><title>house-modern</title><g>	<path d="M0.788,21.321c-0.414,0-0.75-0.336-0.75-0.75s0.336-0.75,0.75-0.75h0.748v-8.068l-0.639,0.128  c-0.049,0.01-0.099,0.015-0.148,0.015c-0.356,0-0.665-0.254-0.735-0.603c-0.039-0.196,0-0.396,0.111-0.563s0.281-0.28,0.477-0.319  l8.42-1.684V4.591L7.937,4.116C7.558,3.95,7.385,3.507,7.551,3.128c0.12-0.273,0.39-0.45,0.687-0.45  c0.104,0,0.206,0.021,0.301,0.063l9.469,4.142V4.101c0-0.414,0.336-0.75,0.75-0.75h2.995c0.414,0,0.75,0.336,0.75,0.75V8.85  l1.044,0.457c0.184,0.08,0.325,0.227,0.398,0.414c0.073,0.187,0.069,0.39-0.011,0.574c-0.119,0.273-0.389,0.449-0.687,0.449  c-0.104,0-0.204-0.021-0.3-0.063l-0.443-0.194v9.333h0.747c0.414,0,0.75,0.336,0.75,0.75s-0.336,0.75-0.75,0.75H0.788z   M21.003,19.821v-9.99l-10.48-4.584v14.573h1.495v-3.742c0-1.241,1.009-2.25,2.25-2.25h3c1.241,0,2.25,1.009,2.25,2.25  l-0.009,3.742H21.003z M18.009,19.821l0.009-3.743c0-0.412-0.336-0.749-0.75-0.749h-3c-0.414,0-0.75,0.336-0.75,0.75v3.742H18.009z   M9.023,19.821v-9.565l-5.987,1.198v8.368H9.023z M21.003,8.194V4.851h-1.495V7.54L21.003,8.194z"></path>	<path d="M12.768,10.466c-0.573,0-1.05-0.429-1.114-1c-0.003-0.017-0.004-0.035-0.005-0.052c-0.002-0.017-0.005-0.055-0.005-0.073  c0-0.026,0.002-0.049,0.006-0.073c0.001-0.017,0.003-0.036,0.005-0.055c0.06-0.513,0.469-0.924,0.982-0.984  c0.043-0.008,0.087-0.012,0.131-0.012s0.088,0.004,0.131,0.011c0.528,0.062,0.938,0.485,0.985,1.015  c0.005,0.033,0.008,0.065,0.008,0.097c0,0.029-0.003,0.057-0.007,0.084c-0.029,0.534-0.452,0.976-1.004,1.032  c-0.001,0-0.002,0-0.003,0c-0.042,0.006-0.074,0.009-0.107,0.009C12.771,10.466,12.768,10.466,12.768,10.466z"></path></g></svg>