<svg xmlns="http://www.w3.org/2000/svg" xmlns:xlink="http://www.w3.org/1999/xlink" id="Regular" x="0px" y="0px" viewBox="0 0 24 24" style="enable-background:new 0 0 24 24;" xml:space="preserve"><title>real-estate-action-house-like</title><g>	<path d="M5.251,20.783c-1.241,0-2.25-1.009-2.25-2.25v-7.5c0-0.414,0.336-0.75,0.75-0.75s0.75,0.336,0.75,0.75v7.5  c0,0.414,0.336,0.75,0.75,0.75h4.5c0.414,0,0.75,0.336,0.75,0.75s-0.336,0.75-0.75,0.75H5.251z"></path>	<path d="M0.751,10.283c-0.221,0-0.43-0.097-0.573-0.266c-0.267-0.316-0.228-0.79,0.088-1.057l8.781-7.43  c0.407-0.344,0.923-0.534,1.453-0.534c0.53,0,1.046,0.19,1.453,0.534l7.3,6.177c0.153,0.129,0.246,0.311,0.263,0.51  c0.017,0.2-0.045,0.394-0.175,0.547C19.2,8.933,18.991,9.03,18.77,9.03l0,0c-0.177,0-0.349-0.063-0.484-0.177l-7.3-6.177  c-0.136-0.115-0.308-0.179-0.485-0.179s-0.348,0.063-0.484,0.178l-8.781,7.43C1.1,10.22,0.928,10.283,0.751,10.283z"></path>	<path d="M18.751,5.783c-0.414,0-0.75-0.336-0.75-0.75v-2.25h-2.25c-0.414,0-0.75-0.336-0.75-0.75s0.336-0.75,0.75-0.75h3  c0.414,0,0.75,0.336,0.75,0.75v3C19.501,5.446,19.164,5.783,18.751,5.783z"></path>	<path d="M17.343,23.033c-0.331,0-0.659-0.046-0.976-0.137l-1.698-0.483c-0.184-0.053-0.374-0.079-0.564-0.079h-1.354  c-0.414,0-0.75-0.336-0.75-0.75v-4.9c0-0.414,0.336-0.75,0.75-0.75h0.7c1.516,0,2.75-1.234,2.75-2.75c0-1.186,0.964-2.15,2.15-2.15  c1.461,0,2.65,1.189,2.65,2.65v0.85h0.15c0.761,0,1.477,0.297,2.015,0.835c0.538,0.538,0.835,1.254,0.834,2.016  c0,0.095-0.005,0.189-0.014,0.281l-0.218,2.172c-0.182,1.822-1.701,3.196-3.532,3.196H17.343z M14.105,20.833  c0.331,0,0.659,0.046,0.976,0.137l1.698,0.483c0.184,0.053,0.374,0.079,0.564,0.079h2.894c1.057,0,1.934-0.794,2.04-1.846  l0.217-2.17c0.004-0.045,0.006-0.091,0.007-0.136c0-0.359-0.14-0.697-0.395-0.952c-0.255-0.255-0.594-0.396-0.955-0.396h-0.2  c-0.8,0-1.45-0.651-1.45-1.45v-0.9c0-0.634-0.516-1.15-1.15-1.15c-0.358,0-0.65,0.292-0.65,0.65c0,2.327-1.879,4.223-4.2,4.25v3.4  H14.105z"></path></g></svg>