<svg xmlns="http://www.w3.org/2000/svg" xmlns:xlink="http://www.w3.org/1999/xlink" id="Regular" x="0px" y="0px" viewBox="0 0 24 24" style="enable-background:new 0 0 24 24;" xml:space="preserve"><title>real-estate-market-building-increase</title><g>	<path d="M11.25,9c-0.211,0-0.413-0.089-0.555-0.246c-0.135-0.148-0.204-0.34-0.194-0.54c0.01-0.2,0.096-0.385,0.245-0.519  L17.56,1.5H15c-0.414,0-0.75-0.336-0.75-0.75S14.586,0,15,0h4.5c0.014,0,0.033,0.001,0.05,0.003  c0.006,0.001,0.012,0.001,0.016,0.002c0.078,0.005,0.164,0.027,0.242,0.062c0.012,0.006,0.03,0.015,0.042,0.022  c0.055,0.026,0.12,0.073,0.178,0.13c0.014,0.012,0.026,0.025,0.038,0.039c0.009,0.01,0.017,0.022,0.025,0.033  c0.051,0.066,0.087,0.13,0.112,0.199c0.003,0.007,0.008,0.023,0.01,0.03c0.026,0.081,0.038,0.155,0.038,0.23v4.5  C20.25,5.664,19.914,6,19.5,6s-0.75-0.336-0.75-0.75V2.445l-6.996,6.36C11.616,8.931,11.437,9,11.25,9z"></path>	<path d="M0.75,24C0.336,24,0,23.664,0,23.25v-12c0-0.827,0.673-1.5,1.5-1.5h6c0.827,0,1.5,0.673,1.5,1.5v3h1.75  c0.689,0,1.25,0.561,1.25,1.25v7h3v-8.25c0-0.414,0.336-0.75,0.75-0.75s0.75,0.336,0.75,0.75v8.25h2.25V9  c0-0.414,0.336-0.75,0.75-0.75S20.25,8.586,20.25,9v13.5h2.25V3.75C22.5,3.336,22.836,3,23.25,3S24,3.336,24,3.75v19.5  c0,0.414-0.336,0.75-0.75,0.75H0.75z M10.5,22.5v-6.75H6.75v6.75H10.5z M5.25,22.5v-7c0-0.689,0.561-1.25,1.25-1.25h1v-3h-6v3H3  c0.414,0,0.75,0.336,0.75,0.75S3.414,15.75,3,15.75H1.5v1.5H3c0.414,0,0.75,0.336,0.75,0.75S3.414,18.75,3,18.75H1.5v3.75H5.25z"></path></g></svg>