<svg xmlns="http://www.w3.org/2000/svg" viewBox="0 0 2500 2500"><path d="M 1777 0.621 C 1690.071 11.461, 1618.499 25.924, 1539.514 48.611 C 1369.319 97.497, 1202.899 180.815, 1059.500 288.929 C 914.917 397.936, 788.423 536.296, 692.318 690.554 C 579.991 870.850, 506.701 1076.794, 480.594 1285.500 C 476.423 1318.836, 474.191 1342.322, 471.515 1381 C 469.293 1413.125, 469.012 1469.619, 469.013 1883.736 L 469.013 2333.972 266.257 2334.237 C 38.756 2334.536, 59.871 2333.798, 43.500 2342.024 C 24.463 2351.591, 9.943 2368.454, 3.197 2388.833 C 0.971 2395.555, 0.649 2398.286, 0.579 2411 C 0.484 2428.464, 1.451 2432.982, 8.283 2447 C 12.729 2456.120, 14.591 2458.696, 22.451 2466.601 C 32.586 2476.795, 41.223 2482.383, 53.500 2486.692 L 61.500 2489.500 333.500 2490.110 C 684.512 2490.898, 1815.488 2490.898, 2166.500 2490.110 L 2438.500 2489.500 2446.500 2486.692 C 2458.908 2482.337, 2467.416 2476.815, 2477.587 2466.514 C 2485.387 2458.615, 2487.398 2455.838, 2491.791 2446.906 C 2494.895 2440.594, 2497.362 2433.943, 2498.062 2430 C 2498.696 2426.425, 2499.617 2422.719, 2500.108 2421.764 C 2501.368 2419.310, 2501.270 2400.715, 2500 2401.500 C 2499.418 2401.860, 2499 2400.856, 2499 2399.097 C 2499 2394.512, 2494.699 2381.937, 2490.701 2374.833 C 2480.501 2356.710, 2463.965 2343.176, 2444.513 2337.031 L 2436.500 2334.500 2233.750 2334.236 L 2031 2333.972 2030.992 1276.236 C 2030.986 593.108, 2030.637 215.313, 2030.005 209.500 C 2021.339 129.834, 1972.966 60.264, 1901.500 24.686 C 1879.438 13.703, 1856.252 6.306, 1832 2.513 C 1821.895 0.932, 1784.748 -0.346, 1777 0.621 M 1791.500 156.699 C 1730.336 163.569, 1651.185 179.552, 1587.053 197.983 C 1412.974 248.012, 1254.280 331.036, 1113.081 445.952 L 1097.663 458.500 1298.581 459.022 C 1524.382 459.609, 1502.075 458.759, 1519.633 467.450 C 1539.326 477.198, 1555.626 497.603, 1560.629 518.770 C 1562.958 528.624, 1562.701 547.346, 1560.100 557.287 C 1555.921 573.260, 1545.383 588.899, 1531.775 599.322 C 1524.399 604.972, 1512.950 610.877, 1504.899 613.183 C 1501.428 614.178, 1441.451 614.555, 1220.522 614.972 L 940.545 615.500 929.709 628.500 C 898.811 665.568, 866.070 710.092, 838.414 752.653 L 826.818 770.500 1083.159 771.034 C 1370.459 771.633, 1345.277 770.911, 1361.735 779.023 C 1381.288 788.661, 1396.215 805.695, 1402.755 825.833 C 1406.130 836.227, 1406.981 854.941, 1404.604 866.505 C 1399.149 893.048, 1377.532 916.445, 1350.618 924.938 L 1342.500 927.500 1042.500 927.769 L 742.500 928.037 736.577 941.769 C 719.374 981.652, 706.164 1016.144, 692.848 1055.948 C 687.982 1070.495, 684 1082.754, 684 1083.190 C 684 1083.626, 867.487 1084.105, 1091.750 1084.254 C 1472.447 1084.506, 1499.865 1084.637, 1505 1086.227 C 1532.349 1094.691, 1554.426 1117.527, 1560.629 1143.770 C 1562.958 1153.624, 1562.701 1172.346, 1560.100 1182.287 C 1554.416 1204.012, 1537.656 1223.821, 1516.808 1233.453 C 1501.404 1240.570, 1540.272 1240, 1070.454 1240 L 646.038 1240 645.537 1242.250 C 642.328 1256.645, 635.066 1308.251, 632.062 1338 C 630.091 1357.527, 628 1384.390, 628 1390.196 L 628 1395.970 983.750 1396.263 C 1382.781 1396.591, 1345.086 1395.817, 1361.735 1404.023 C 1381.288 1413.661, 1396.215 1430.695, 1402.755 1450.833 C 1406.130 1461.227, 1406.981 1479.941, 1404.604 1491.505 C 1399.149 1518.048, 1377.532 1541.445, 1350.618 1549.938 L 1342.500 1552.500 983.750 1552.760 L 625 1553.019 625 1943.510 L 625 2334 1250.003 2334 L 1875.007 2334 1874.753 1278.250 L 1874.500 222.500 1872.265 214.650 C 1865.929 192.392, 1850.099 173.493, 1829.858 164.021 C 1819.100 158.986, 1801.331 155.595, 1791.500 156.699 M 0.370 2412 C 0.370 2417.775, 0.535 2420.137, 0.737 2417.250 C 0.939 2414.363, 0.939 2409.637, 0.737 2406.750 C 0.535 2403.863, 0.370 2406.225, 0.370 2412" stroke="none" fill="#000000" fill-rule="evenodd"></path></svg>