<svg xmlns="http://www.w3.org/2000/svg" viewBox="0 0 2500 2500"><path d="M 160.107 1.143 C 96.935 7.746, 44.814 43.651, 18.055 99 C 9.985 115.692, 3.385 139.850, 1.058 161.211 C 0.320 167.980, 0.005 513.210, 0.017 1301.211 C 0.032 2272.627, 0.234 2432.440, 1.452 2438.186 C 4.691 2453.470, 11.190 2465.165, 23.012 2476.988 C 34.905 2488.880, 46.614 2495.359, 62.022 2498.572 C 67.977 2499.813, 227.092 2499.971, 1247.700 2499.746 C 2331.734 2499.508, 2426.902 2499.357, 2431.500 2497.865 C 2446.925 2492.862, 2456.727 2486.998, 2466.891 2476.692 C 2477.351 2466.087, 2483.647 2455.364, 2487.177 2442.144 C 2490.030 2431.459, 2490.031 2412.545, 2487.179 2401.864 C 2480.377 2376.391, 2459.846 2354.988, 2434.500 2346.949 C 2428.928 2345.182, 2424.287 2344.630, 2411.750 2344.245 L 2396 2343.761 2396 1992.510 L 2396 1641.259 2415.250 1640.738 C 2437.665 1640.131, 2445.588 1638.491, 2457.965 1631.896 C 2479.363 1620.495, 2495.930 1598.063, 2498.817 1576.583 C 2499.193 1573.787, 2499.726 1765.225, 2500.002 2002 C 2500.278 2238.775, 2500.503 1922.425, 2500.503 1299 C 2500.502 675.575, 2500.346 407.375, 2500.156 703 C 2499.868 1152.161, 2499.594 1239.408, 2498.488 1233.856 C 2495.508 1218.888, 2488.868 1206.893, 2476.988 1195.012 C 2465.165 1183.190, 2453.470 1176.691, 2438.186 1173.452 C 2432.446 1172.235, 2304.924 1172.032, 1536.708 1172.017 C 722.939 1172.002, 641.218 1172.144, 634.208 1173.589 C 609.943 1178.591, 587.921 1197.290, 578.330 1221.035 C 572.820 1234.676, 573.036 1227.164, 573.017 1405.792 C 572.999 1584.241, 572.810 1577.400, 578.129 1591.615 C 583.959 1607.197, 599.948 1624.416, 616.176 1632.589 C 628.150 1638.619, 635.949 1640.147, 657.750 1640.738 L 677 1641.259 677 1992.631 L 677 2344.004 416.750 2343.752 L 156.500 2343.500 156.500 1259 C 156.500 355.591, 156.724 173.759, 157.840 170.060 C 159.474 164.643, 164.249 159.666, 169.547 157.856 C 172.847 156.728, 281.660 156.462, 828.500 156.241 C 1231.144 156.079, 1486.117 156.337, 1490.292 156.912 C 1499.400 158.167, 1503.924 160.650, 1507 166.084 L 1509.500 170.500 1510.045 560.500 C 1510.532 909.829, 1510.752 951.074, 1512.150 956 C 1516.557 971.529, 1523.916 983.905, 1534.913 994.279 C 1552.173 1010.561, 1574.481 1017.913, 1597.963 1015.058 C 1616.077 1012.855, 1630.343 1005.828, 1643.586 992.586 C 1656.627 979.544, 1663.720 965.421, 1665.978 948 C 1666.768 941.896, 1666.975 829.843, 1666.712 550.500 C 1666.314 128.711, 1666.702 157.845, 1661.185 135 C 1645.253 69.027, 1597.130 21.056, 1531.189 5.413 C 1506.805 -0.371, 1554.398 -0.012, 832.006 0.133 C 459.658 0.207, 164.817 0.651, 160.107 1.143 M 0.498 1300 C 0.498 1923.425, 0.612 2178.462, 0.750 1866.750 C 0.888 1555.037, 0.888 1044.962, 0.750 733.250 C 0.612 421.537, 0.498 676.575, 0.498 1300 M 454.064 313.067 C 423.977 316.143, 397.690 338.309, 388.324 368.500 L 385.531 377.500 385.516 442 C 385.502 499.932, 385.676 507.185, 387.231 513.230 C 394.125 540.034, 415.003 561.733, 442 570.153 C 448.393 572.147, 451.567 572.487, 463.500 572.459 C 478.009 572.424, 481.366 571.835, 493 567.279 C 508.822 561.083, 525.117 546.085, 533.192 530.286 C 541.541 513.952, 541.500 514.381, 541.500 442.500 C 541.500 374.620, 541.479 374.298, 536.097 361.073 C 529.221 344.176, 514.121 328.073, 497.560 319.975 C 485.670 314.161, 469.100 311.529, 454.064 313.067 M 819 313.047 C 809.269 314.222, 803.581 315.717, 796.342 318.999 C 778.943 326.888, 762.651 343.595, 755.718 360.655 C 750.448 373.626, 750.500 372.800, 750.500 443 C 750.500 508.423, 750.503 508.509, 752.807 516.500 C 760.178 542.067, 782.083 563.550, 808 570.630 C 817.990 573.359, 839.048 573.144, 849.309 570.208 C 877.035 562.275, 898.885 539.008, 904.464 511.475 C 905.878 504.496, 906.045 495.293, 905.780 438.990 C 905.476 374.585, 905.473 374.491, 903.153 367.500 C 891.137 331.282, 856.039 308.571, 819 313.047 M 1183.404 313.020 C 1173.798 314.033, 1165.957 316.426, 1157 321.075 C 1141.701 329.017, 1130.252 340.749, 1122.427 356.500 C 1114.806 371.842, 1114.761 372.263, 1114.271 434.326 C 1114.008 467.514, 1114.241 493.574, 1114.861 500.357 C 1116.804 521.617, 1123.292 535.579, 1137.931 550 C 1155.089 566.903, 1173.541 573.980, 1197 572.655 C 1212.545 571.777, 1223.110 568.405, 1234.923 560.551 C 1251.940 549.238, 1264.160 532.214, 1269.107 512.928 C 1270.228 508.562, 1270.500 494.783, 1270.500 442.500 C 1270.500 377.947, 1270.484 377.446, 1268.237 369.691 C 1261.044 344.871, 1241.074 323.892, 1217.521 316.413 C 1211.157 314.392, 1194.850 311.717, 1191.500 312.144 C 1190.950 312.214, 1187.307 312.608, 1183.404 313.020 M 450.831 755.955 C 434.252 758.996, 422.009 765.234, 409.633 776.947 C 398.720 787.275, 390.912 800.458, 387.231 814.770 C 385.679 820.803, 385.500 828.023, 385.500 884.500 C 385.500 952.615, 385.568 953.637, 391.008 967.124 C 398.972 986.873, 417.384 1004.365, 437.665 1011.450 C 453.248 1016.895, 473.732 1016.902, 489.286 1011.468 C 510.752 1003.968, 530.140 984.608, 537.519 963.306 C 541.750 951.091, 542.142 943.393, 541.766 880 C 541.426 822.826, 541.329 820.201, 539.272 812.846 C 532.084 787.146, 510.341 765.180, 485 758.017 C 476.606 755.644, 458.486 754.550, 450.831 755.955 M 818 755.569 C 809.602 757.025, 804.263 758.440, 798.825 760.649 C 777.348 769.376, 759.572 788.842, 752.844 811 C 750.593 818.411, 750.563 819.251, 750.241 881.988 C 749.888 950.750, 750.077 953.846, 755.430 967.021 C 764.161 988.507, 785.222 1007.110, 807.645 1013.141 C 818.018 1015.931, 837.434 1016.144, 847 1013.574 C 873.836 1006.363, 894.379 986.947, 903.153 960.500 C 905.473 953.509, 905.476 953.415, 905.780 889.010 C 906.045 832.707, 905.878 823.504, 904.464 816.525 C 898.864 788.888, 876.256 765.116, 848.353 757.524 C 842.641 755.970, 822.988 754.704, 818 755.569 M 1179.831 755.955 C 1172.337 757.329, 1163.970 759.984, 1158.543 762.708 C 1142.105 770.959, 1126.903 787.050, 1120.381 803.101 C 1114.451 817.695, 1114.502 816.973, 1114.501 885 C 1114.500 954.705, 1114.539 955.179, 1121.439 969.709 C 1131.730 991.379, 1148.493 1006.020, 1170.500 1012.558 C 1178.107 1014.818, 1181.435 1015.238, 1192 1015.272 C 1206.086 1015.316, 1214.121 1013.779, 1224.576 1009.038 C 1244.742 999.895, 1261.606 980.525, 1268.140 959 C 1270.386 951.603, 1270.421 950.651, 1270.758 889.728 C 1271.131 822.183, 1270.876 818.072, 1265.477 804.490 C 1256.674 782.345, 1236.912 764.512, 1213.973 758.014 C 1205.607 755.644, 1187.484 754.551, 1179.831 755.955 M 729.667 1328.666 C 729.300 1329.033, 729 1364.133, 729 1406.667 L 729 1484 1536.506 1484 L 2344.012 1484 2343.756 1406.250 L 2343.500 1328.500 1536.917 1328.249 C 1093.297 1328.112, 730.034 1328.299, 729.667 1328.666 M 833.249 1992.250 L 833.500 2343.500 1067.750 2343.752 L 1302 2344.004 1302 2179.608 C 1302 2074.929, 1302.372 2011.450, 1303.023 2004.856 C 1308.238 1952.081, 1331.105 1903.664, 1369.489 1864.128 C 1405.316 1827.225, 1448.149 1804.131, 1498 1794.841 C 1511.752 1792.279, 1546.291 1791.244, 1561.057 1792.952 C 1615.150 1799.210, 1665.074 1824.276, 1704.132 1864.788 C 1738.890 1900.840, 1759.789 1942.351, 1768.680 1993 C 1770.184 2001.564, 1770.383 2019.321, 1770.704 2173.250 L 1771.060 2344 2005.030 2344 L 2239 2344 2239 1992.500 L 2239 1641 1535.999 1641 L 832.997 1641 833.249 1992.250 M 1050.500 1845.482 C 1027.036 1850.656, 1006.157 1867.836, 996.039 1890.294 C 990.724 1902.090, 989.778 1908.944, 989.249 1939.500 C 988.333 1992.392, 991.923 2006.969, 1010.834 2027.137 C 1027.763 2045.190, 1047.011 2052.927, 1071.977 2051.713 C 1085.129 2051.074, 1093.961 2048.753, 1104 2043.299 C 1121.573 2033.752, 1135.276 2018.008, 1141.489 2000.225 C 1145.695 1988.187, 1146.185 1981.600, 1145.735 1943.247 C 1145.383 1913.292, 1145.037 1906.552, 1143.599 1901.647 C 1135.271 1873.232, 1112.199 1851.239, 1084.792 1845.589 C 1075.561 1843.686, 1058.881 1843.634, 1050.500 1845.482 M 1985.780 1845.982 C 1962.414 1851.911, 1941.507 1870.240, 1932.467 1892.721 C 1927.385 1905.360, 1926.815 1911.773, 1927.230 1951.679 C 1927.602 1987.482, 1927.681 1988.722, 1930.087 1996.513 C 1936.049 2015.812, 1949.669 2032.478, 1967.833 2042.701 C 1987.175 2053.586, 2014.565 2055.047, 2035.258 2046.296 C 2055.413 2037.774, 2072.742 2019.112, 2079.847 1998.278 L 2082.500 1990.500 2082.500 1948 L 2082.500 1905.500 2079.779 1897.479 C 2071.979 1874.489, 2052.119 1854.675, 2029.521 1847.338 C 2018.351 1843.711, 1997.302 1843.059, 1985.780 1845.982 M 1522.500 1949.657 C 1498.498 1954.780, 1475.701 1973.740, 1464.898 1997.564 C 1458.057 2012.653, 1458.500 1999.974, 1458.500 2180.500 L 1458.500 2343.500 1536.267 2343.756 L 1614.034 2344.012 1613.767 2177.756 L 1613.500 2011.500 1610.755 2004.090 C 1602.743 1982.460, 1587.822 1965.863, 1567.500 1955.976 C 1551.778 1948.327, 1537.878 1946.375, 1522.500 1949.657" stroke="none" fill="#000000" fill-rule="evenodd"></path></svg>