<svg xmlns="http://www.w3.org/2000/svg" viewBox="0 0 2500 2500"><path d="M 379.500 0.626 C 369.310 2.633, 366.172 3.477, 360.825 5.649 C 343.554 12.667, 326.923 28.866, 318.961 46.426 C 312.340 61.028, 312.672 53.927, 312.281 189.192 L 311.926 311.884 213.713 312.285 C 106.765 312.722, 110.005 312.556, 90.964 318.571 C 65.031 326.764, 41.367 343.773, 25.050 365.948 C 12.944 382.403, 3.618 405.906, 1.023 426.500 C 0.183 433.169, -0.027 688.449, 0.213 1412 C 0.524 2349.839, 0.608 2388.797, 2.345 2396 C 8.907 2423.224, 19.723 2442.889, 38.417 2461.583 C 57.496 2480.663, 78.368 2491.978, 105 2497.680 C 113.191 2499.434, 154.758 2499.500, 1250 2499.500 C 2345.242 2499.500, 2386.809 2499.434, 2395 2497.680 C 2432.635 2489.622, 2463.637 2467.312, 2482.797 2434.500 C 2490.363 2421.541, 2497.009 2402.286, 2498.607 2388.690 C 2498.978 2385.529, 2499.669 2382.705, 2500.141 2382.413 C 2500.619 2382.117, 2500.891 1948.681, 2500.755 1405.191 C 2500.620 868.011, 2500.282 499.150, 2500.005 585.500 C 2499.727 671.850, 2499.147 739.814, 2498.716 736.532 C 2496.832 722.201, 2490.332 703.405, 2482.797 690.500 C 2476.179 679.167, 2469.700 670.970, 2459.801 661.408 C 2442.246 644.450, 2421.840 633.558, 2396 627.351 C 2388.863 625.637, 2371.490 625.533, 2037 625.216 C 1778.626 624.972, 1683.116 625.185, 1676.500 626.020 C 1626.465 632.341, 1583.740 667.946, 1568.571 715.964 C 1562.167 736.237, 1562.646 714.963, 1562.282 995.250 L 1561.952 1250 1327.976 1250 L 1094 1250 1094 844.461 C 1094 568.183, 1093.665 435.826, 1092.950 429.211 C 1087.403 377.878, 1053.200 335.430, 1004.142 318.994 C 983.621 312.119, 1005.914 312.653, 723.776 312.282 L 469.053 311.948 468.760 188.224 L 468.468 64.500 466.191 57.107 C 457.345 28.388, 434.813 7.325, 406.792 1.580 C 399.834 0.154, 384.603 -0.379, 379.500 0.626 M 0.498 1406.500 C 0.498 1943.850, 0.611 2163.525, 0.750 1894.667 C 0.889 1625.810, 0.889 1186.160, 0.750 917.667 C 0.611 649.175, 0.498 869.150, 0.498 1406.500 M 156.249 1406.250 L 156.500 2343.500 546.750 2343.751 L 937 2344.003 937 1406.501 L 937 469 546.499 469 L 155.999 469 156.249 1406.250 M 299.831 782.015 C 279.166 785.537, 260.909 797.115, 248.364 814.654 C 238.968 827.789, 234.799 841.101, 234.633 858.500 C 234.472 875.327, 238.222 888.963, 246.400 901.283 C 257.939 918.668, 273.631 930.063, 293.237 935.295 L 301.500 937.500 546.500 937.500 C 778.673 937.500, 791.900 937.406, 799.146 935.705 C 827.143 929.132, 851.739 904.388, 857.500 877 C 859.373 868.094, 859.410 850.599, 857.574 841.937 C 851.828 814.834, 829.988 792.066, 801.353 783.330 C 795.809 781.639, 782.550 781.536, 550 781.382 C 414.975 781.293, 302.399 781.578, 299.831 782.015 M 1719 1562.500 L 1719 2344.003 2031.250 2343.752 L 2343.500 2343.500 2343.500 1562.500 L 2343.500 781.500 2031.250 781.248 L 1719 780.997 1719 1562.500 M 295.500 1095.493 C 267.111 1101.863, 244.826 1123.218, 236.828 1151.716 C 233.809 1162.473, 233.823 1181.067, 236.859 1192.355 C 244.644 1221.300, 270.370 1244.511, 299.642 1249 C 304.336 1249.720, 383.798 1249.965, 551.500 1249.776 L 796.500 1249.500 803.500 1247.136 C 828.640 1238.647, 848.099 1219.698, 855.729 1196.278 C 859.449 1184.859, 860.101 1164.843, 857.140 1152.950 C 850.771 1127.370, 830.830 1105.850, 805.500 1097.224 L 797.500 1094.500 549.500 1094.324 C 344.791 1094.178, 300.453 1094.382, 295.500 1095.493 M 1935.330 1095.539 C 1908.845 1101.413, 1886.402 1122.690, 1877.858 1150.025 C 1875.877 1156.361, 1875.521 1159.634, 1875.518 1171.500 C 1875.514 1187.848, 1876.908 1194.353, 1883.019 1206.500 C 1892.881 1226.101, 1911.023 1241.344, 1931.459 1247.197 L 1939.500 1249.500 2031 1249.500 C 2106.111 1249.500, 2123.485 1249.249, 2128 1248.101 C 2156.855 1240.761, 2180.208 1216.396, 2186.084 1187.500 C 2187.973 1178.209, 2187.478 1160.901, 2185.056 1151.588 C 2178.618 1126.828, 2157.988 1105.335, 2132.500 1096.835 L 2125.500 1094.500 2033.500 1094.335 C 1958.856 1094.202, 1940.336 1094.429, 1935.330 1095.539 M 299.831 1407.015 C 279.166 1410.537, 260.909 1422.115, 248.364 1439.654 C 238.968 1452.789, 234.799 1466.101, 234.633 1483.500 C 234.472 1500.327, 238.222 1513.963, 246.400 1526.283 C 257.939 1543.668, 273.631 1555.063, 293.237 1560.295 L 301.500 1562.500 546.500 1562.500 C 778.673 1562.500, 791.900 1562.406, 799.146 1560.705 C 827.143 1554.132, 851.739 1529.388, 857.500 1502 C 859.373 1493.094, 859.410 1475.599, 857.574 1466.937 C 851.828 1439.834, 829.988 1417.066, 801.353 1408.330 C 795.809 1406.639, 782.550 1406.536, 550 1406.382 C 414.975 1406.293, 302.399 1406.578, 299.831 1407.015 M 1094 1875 L 1094 2344 1328 2344 L 1562 2344 1562 1875 L 1562 1406 1328 1406 L 1094 1406 1094 1875 M 1940.831 1407.005 C 1919.018 1410.769, 1900.311 1422.872, 1887.779 1441.325 C 1878.466 1455.039, 1874.353 1470.615, 1875.326 1488.480 C 1876.496 1509.966, 1883.513 1525.479, 1898.685 1540.126 C 1910.323 1551.361, 1922.252 1557.832, 1937.500 1561.182 C 1946.360 1563.128, 2116.818 1563.102, 2125.500 1561.153 C 2149.139 1555.846, 2169.087 1540.168, 2179.868 1518.420 C 2190.837 1496.293, 2189.678 1466.223, 2177.034 1444.941 C 2166.924 1427.923, 2150 1414.684, 2130.839 1408.804 L 2123.500 1406.552 2034.500 1406.376 C 1985.550 1406.279, 1943.399 1406.562, 1940.831 1407.005 M 295.500 1720.493 C 267.111 1726.863, 244.826 1748.218, 236.828 1776.716 C 233.809 1787.473, 233.823 1806.067, 236.859 1817.355 C 244.644 1846.300, 270.370 1869.511, 299.642 1874 C 304.336 1874.720, 383.798 1874.965, 551.500 1874.776 L 796.500 1874.500 803.500 1872.136 C 828.640 1863.647, 848.099 1844.698, 855.729 1821.278 C 859.449 1809.859, 860.101 1789.843, 857.140 1777.950 C 850.771 1752.370, 830.830 1730.850, 805.500 1722.224 L 797.500 1719.500 549.500 1719.324 C 344.791 1719.178, 300.453 1719.382, 295.500 1720.493 M 1935.330 1720.539 C 1908.845 1726.413, 1886.402 1747.690, 1877.858 1775.025 C 1875.877 1781.361, 1875.521 1784.634, 1875.518 1796.500 C 1875.514 1812.848, 1876.908 1819.353, 1883.019 1831.500 C 1892.881 1851.101, 1911.023 1866.344, 1931.459 1872.197 L 1939.500 1874.500 2031 1874.500 C 2106.111 1874.500, 2123.485 1874.249, 2128 1873.101 C 2156.855 1865.761, 2180.208 1841.396, 2186.084 1812.500 C 2187.973 1803.209, 2187.478 1785.901, 2185.056 1776.588 C 2178.618 1751.828, 2157.988 1730.335, 2132.500 1721.835 L 2125.500 1719.500 2033.500 1719.335 C 1958.856 1719.202, 1940.336 1719.429, 1935.330 1720.539 M 299.831 2032.015 C 279.166 2035.537, 260.909 2047.115, 248.364 2064.654 C 238.968 2077.789, 234.799 2091.101, 234.633 2108.500 C 234.472 2125.327, 238.222 2138.963, 246.400 2151.283 C 257.939 2168.668, 273.631 2180.063, 293.237 2185.295 L 301.500 2187.500 546.500 2187.500 C 778.673 2187.500, 791.900 2187.406, 799.146 2185.705 C 827.143 2179.132, 851.739 2154.388, 857.500 2127 C 859.373 2118.094, 859.410 2100.599, 857.574 2091.937 C 851.828 2064.834, 829.988 2042.066, 801.353 2033.330 C 795.809 2031.639, 782.550 2031.536, 550 2031.382 C 414.975 2031.293, 302.399 2031.578, 299.831 2032.015 M 1940.831 2032.005 C 1919.018 2035.769, 1900.311 2047.872, 1887.779 2066.325 C 1878.466 2080.039, 1874.353 2095.615, 1875.326 2113.480 C 1876.496 2134.966, 1883.513 2150.479, 1898.685 2165.126 C 1910.323 2176.361, 1922.252 2182.832, 1937.500 2186.182 C 1946.360 2188.128, 2116.818 2188.102, 2125.500 2186.153 C 2149.139 2180.846, 2169.087 2165.168, 2179.868 2143.420 C 2190.837 2121.293, 2189.678 2091.223, 2177.034 2069.941 C 2166.924 2052.923, 2150 2039.684, 2130.839 2033.804 L 2123.500 2031.552 2034.500 2031.376 C 1985.550 2031.279, 1943.399 2031.562, 1940.831 2032.005" stroke="none" fill="#000000" fill-rule="evenodd"></path></svg>