<svg xmlns="http://www.w3.org/2000/svg" xmlns:xlink="http://www.w3.org/1999/xlink" id="Regular" x="0px" y="0px" viewBox="0 0 24 24" style="enable-background:new 0 0 24 24;" xml:space="preserve"><title>real-estate-message-house</title><g>	<path d="M10.498,15.75c-0.827,0-1.5-0.673-1.5-1.5v-3.399l-0.27,0.225c-0.135,0.112-0.305,0.174-0.48,0.174  c-0.223,0-0.433-0.098-0.576-0.27c-0.265-0.318-0.222-0.792,0.096-1.056l4.5-3.75C12.402,6.062,12.573,6,12.748,6  s0.346,0.062,0.48,0.174l4.5,3.75c0.154,0.128,0.249,0.309,0.267,0.508c0.018,0.199-0.042,0.394-0.171,0.548  c-0.143,0.172-0.353,0.27-0.576,0.27c-0.175,0-0.345-0.062-0.48-0.174l-0.27-0.225v3.399c0,0.827-0.673,1.5-1.5,1.5H10.498z   M10.498,14.25h4.5V9.601l-2.25-1.875l-2.25,1.875V14.25z"></path>	<path d="M0.749,24c-0.201,0-0.389-0.078-0.531-0.22c-0.224-0.224-0.283-0.566-0.147-0.852l2.911-6.113  c-0.974-1.702-1.486-3.632-1.484-5.596C1.507,5.033,6.547,0,12.733,0l0.036,0.375V0c2.102,0,4.157,0.587,5.941,1.697  c2.548,1.585,4.327,4.071,5.01,7.001s0.186,5.946-1.399,8.494c-1.587,2.552-4.073,4.333-6.999,5.015  c-0.848,0.198-1.714,0.298-2.574,0.298c0,0,0,0,0,0c-1.944,0-3.864-0.514-5.565-1.489l-6.113,2.912C0.97,23.975,0.859,24,0.749,24z   M12.743,1.5C7.37,1.503,3.006,5.862,2.998,11.221c-0.003,1.825,0.506,3.609,1.47,5.158c0.136,0.219,0.151,0.487,0.04,0.719  l-2.174,4.567l4.567-2.175C7,19.441,7.112,19.416,7.223,19.416c0.14,0,0.278,0.039,0.397,0.114c1.55,0.964,3.325,1.474,5.131,1.474  c0.746,0,1.497-0.087,2.232-0.258c2.536-0.591,4.69-2.135,6.066-4.346c2.839-4.565,1.435-10.589-3.13-13.429  C16.372,2.009,14.592,1.5,12.77,1.5c-0.004,0-0.031,0-0.033,0L12.743,1.5z"></path></g></svg>