<svg xmlns="http://www.w3.org/2000/svg" xmlns:xlink="http://www.w3.org/1999/xlink" id="Regular" x="0px" y="0px" viewBox="0 0 24 24" style="enable-background:new 0 0 24 24;" xml:space="preserve"><title>real-estate-market-house-increase</title><g>	<path d="M3,24c-0.827,0-1.5-0.673-1.5-1.5v-4.149l-0.27,0.225c-0.135,0.112-0.305,0.174-0.48,0.174  c-0.223,0-0.433-0.098-0.576-0.27c-0.128-0.154-0.189-0.348-0.171-0.548c0.018-0.199,0.113-0.38,0.267-0.508l4.5-3.75  C4.905,13.562,5.075,13.5,5.25,13.5s0.345,0.062,0.48,0.174l4.5,3.75c0.154,0.128,0.249,0.309,0.267,0.508  c0.018,0.2-0.043,0.394-0.171,0.548c-0.143,0.171-0.353,0.27-0.576,0.27c-0.175,0-0.345-0.062-0.48-0.174L9,18.351V22.5  C9,23.327,8.327,24,7.5,24H3z M3,22.5h4.5v-5.399l-2.25-1.875L3,17.101V22.5z"></path>	<path d="M6.75,12c-0.216,0-0.422-0.093-0.565-0.256C6.053,11.593,5.988,11.4,6.002,11.2c0.013-0.2,0.104-0.383,0.254-0.515  L16.754,1.5H14.25c-0.414,0-0.75-0.336-0.75-0.75S13.836,0,14.25,0h4.5c0.012,0,0.027,0.001,0.04,0.002  c0.021,0.001,0.042,0.004,0.063,0.006c0.029,0.004,0.05,0.008,0.07,0.012c0.02,0.005,0.042,0.011,0.064,0.019  c0.028,0.009,0.052,0.018,0.074,0.028c0.02,0.009,0.036,0.018,0.053,0.028c0.033,0.019,0.053,0.031,0.073,0.046  c0.009,0.006,0.036,0.029,0.045,0.036c0.022,0.019,0.039,0.034,0.054,0.05c0.01,0.009,0.02,0.02,0.028,0.028  c0.012,0.013,0.03,0.038,0.04,0.053c0.003,0.003,0.02,0.026,0.035,0.05c0.01,0.015,0.021,0.037,0.032,0.059  c0.012,0.025,0.022,0.048,0.031,0.072c0.007,0.018,0.014,0.041,0.021,0.065c0.008,0.029,0.013,0.053,0.017,0.079  c0.003,0.015,0.005,0.039,0.007,0.064C19.498,0.714,19.5,0.736,19.5,0.75v4.5C19.5,5.664,19.163,6,18.75,6S18,5.664,18,5.25V2.403  L7.244,11.814C7.107,11.934,6.932,12,6.75,12z"></path>	<path d="M11.25,24c-0.414,0-0.75-0.336-0.75-0.75s0.336-0.75,0.75-0.75h2.25v-8.25c0-0.414,0.336-0.75,0.75-0.75  S15,13.836,15,14.25v8.25h3V9c0-0.414,0.336-0.75,0.75-0.75S19.5,8.586,19.5,9v13.5h3V3.75C22.5,3.336,22.836,3,23.25,3  S24,3.336,24,3.75v19.5c0,0.414-0.336,0.75-0.75,0.75H11.25z"></path></g></svg>