<svg xmlns="http://www.w3.org/2000/svg" xmlns:xlink="http://www.w3.org/1999/xlink" id="Regular" x="0px" y="0px" viewBox="0 0 24 24" style="enable-background:new 0 0 24 24;" xml:space="preserve"><title>real-estate-deal-shake-building</title><g>	<path d="M10.153,24.005c-0.444,0-0.874-0.181-1.185-0.498l-2.855-2.171H5.109c-0.306,0.788-1.08,1.334-1.942,1.334h-2  c-0.414,0-0.75-0.336-0.75-0.75s0.336-0.75,0.75-0.75h2c0.322,0,0.583-0.261,0.583-0.583v-6.665c0-0.158-0.061-0.305-0.171-0.415  c-0.11-0.11-0.256-0.171-0.412-0.171h-2c-0.414,0-0.75-0.336-0.75-0.75s0.336-0.75,0.75-0.75h2c0.557,0,1.081,0.217,1.474,0.611  c0.136,0.136,0.25,0.287,0.342,0.451l3.016-1.286c0.336-0.134,0.679-0.201,1.026-0.201c0.563,0,1.104,0.174,1.565,0.504  l2.271-1.104c0.402-0.201,0.858-0.308,1.317-0.308c0.347,0,0.688,0.06,1.011,0.177l4.076,1.56c0.356-0.263,0.786-0.406,1.232-0.406  H22.5c0.414,0,0.75,0.336,0.75,0.75s-0.336,0.75-0.75,0.75h-2c-0.156,0-0.302,0.061-0.412,0.171c-0.11,0.11-0.171,0.257-0.17,0.412  v6.667c0,0.322,0.261,0.584,0.583,0.584h2c0.414,0,0.75,0.336,0.75,0.75s-0.336,0.75-0.75,0.75h-2  c-1.148,0-2.083-0.934-2.083-2.083V20.37l-4.206,0.841l-3.013,2.42C10.906,23.871,10.533,24.005,10.153,24.005z M6.365,19.835  c0.163,0,0.324,0.054,0.454,0.153l3.106,2.362c0.04,0.031,0.075,0.063,0.106,0.098c0.043,0.048,0.094,0.055,0.121,0.055  c0.026,0,0.065-0.006,0.102-0.037l4.667-3.749c0.061-0.05,0.073-0.137,0.029-0.206l-2.181-2.403l-0.455,0.187  c-0.282,0.111-0.572,0.166-0.868,0.166c-0.975,0-1.834-0.585-2.19-1.49c-0.261-0.665-0.205-1.398,0.134-2.004  c-0.116-0.037-0.239-0.056-0.365-0.056c-0.155,0-0.308,0.03-0.454,0.088L5.25,14.415v5.42H6.365z M16.086,17.532  c0.012,0.012,0.025,0.029,0.038,0.045c0.388,0.497,0.451,1.14,0.217,1.678l2.076-0.415v-4.921c0-0.129,0.012-0.257,0.035-0.383  l-3.787-1.449c-0.15-0.054-0.315-0.083-0.485-0.083c-0.228,0-0.455,0.053-0.657,0.154l-2.477,1.204  c-0.015,0.008-0.034,0.022-0.053,0.035l-0.01,0.007c-0.03,0.024-0.062,0.046-0.095,0.065c-0.276,0.233-0.371,0.614-0.237,0.956  c0.127,0.323,0.445,0.54,0.793,0.54c0.106,0,0.21-0.02,0.309-0.059l2.461-1.012c0.091-0.038,0.187-0.057,0.286-0.057  c0.305,0,0.577,0.183,0.693,0.465c0.076,0.185,0.076,0.389-0.001,0.574c-0.077,0.185-0.222,0.329-0.407,0.405l-0.542,0.223  L16.086,17.532z"></path>	<path d="M3.583,10.502c-0.414,0-0.75-0.336-0.75-0.75v-8.25c0.001-0.403,0.158-0.78,0.443-1.062  c0.283-0.281,0.659-0.436,1.058-0.436c0.186,0,0.363,0.033,0.532,0.098c0.027,0.01,0.054,0.022,0.079,0.035l3.888,2.012V0.753  c0-0.414,0.336-0.75,0.75-0.75s0.75,0.336,0.75,0.75v2.172l2.83,1.465c0.551,0.23,0.921,0.782,0.923,1.38v0.233h5.247  c1.241,0,2.25,1.009,2.25,2.25v0.75c0,0.414-0.336,0.75-0.75,0.75s-0.75-0.336-0.75-0.75v-0.75c0-0.414-0.336-0.75-0.75-0.75  h-5.247v1.5c0,0.414-0.336,0.75-0.75,0.75s-0.75-0.336-0.75-0.75V6.806c-0.002-0.016-0.003-0.035-0.003-0.054  c0-0.012,0.001-0.034,0.003-0.052V5.772c-0.028-0.009-0.055-0.021-0.081-0.034L4.334,1.509L4.333,4.503h1.5  c0.414,0,0.75,0.336,0.75,0.75s-0.336,0.75-0.75,0.75h-1.5v1.5h3c0.414,0,0.75,0.336,0.75,0.75s-0.336,0.75-0.75,0.75h-3v0.749  C4.333,10.166,3.996,10.502,3.583,10.502z"></path></g></svg>