<svg xmlns="http://www.w3.org/2000/svg" xmlns:xlink="http://www.w3.org/1999/xlink" id="Regular" x="0px" y="0px" viewBox="0 0 24 24" style="enable-background:new 0 0 24 24;" xml:space="preserve"><title>real-estate-person-search-house-1</title><g>	<path d="M4.5,10.5c-2.068,0-3.75-1.682-3.75-3.75S2.432,3,4.5,3s3.75,1.682,3.75,3.75S6.568,10.5,4.5,10.5z M4.5,4.5  c-1.241,0-2.25,1.009-2.25,2.25S3.259,9,4.5,9s2.25-1.009,2.25-2.25S5.741,4.5,4.5,4.5z"></path>	<path d="M3,24c-0.377,0-0.697-0.282-0.744-0.657L1.588,18H0.75C0.336,18,0,17.664,0,17.25V15c0-2.481,2.019-4.5,4.5-4.5  S9,12.519,9,15v2.25C9,17.664,8.664,18,8.25,18H7.412l-0.668,5.343C6.697,23.718,6.377,24,6,24H3z M5.338,22.5l0.668-5.343  C6.053,16.782,6.373,16.5,6.75,16.5H7.5V15c0-1.654-1.346-3-3-3s-3,1.346-3,3v1.5h0.75c0.377,0,0.697,0.282,0.744,0.657L3.662,22.5  H5.338z"></path>	<path d="M14.25,21c-0.099,0-0.196-0.019-0.288-0.057c-0.281-0.116-0.462-0.388-0.462-0.693V16.5h-2.25  c-0.414,0-0.75-0.336-0.75-0.75S10.836,15,11.25,15h3c0.414,0,0.75,0.336,0.75,0.75v2.689l3.22-3.22  c0.14-0.14,0.333-0.22,0.53-0.22h3c0.414,0,0.75-0.336,0.75-0.75v-12c0-0.414-0.336-0.75-0.75-0.75h-12C9.336,1.5,9,1.836,9,2.25  S8.664,3,8.25,3S7.5,2.664,7.5,2.25C7.5,1.009,8.509,0,9.75,0h12C22.991,0,24,1.009,24,2.25v12c0,1.241-1.009,2.25-2.25,2.25  h-2.689l-4.28,4.28C14.639,20.922,14.45,21,14.25,21z"></path>	<path d="M13.5,12.75c-0.827,0-1.5-0.673-1.5-1.5V7.851l-0.27,0.225c-0.135,0.112-0.305,0.174-0.48,0.174  c-0.223,0-0.433-0.098-0.576-0.27c-0.265-0.318-0.222-0.792,0.096-1.057l4.5-3.75C15.404,3.062,15.574,3,15.75,3  s0.346,0.062,0.48,0.174l4.5,3.75c0.154,0.128,0.249,0.309,0.267,0.508c0.018,0.199-0.042,0.394-0.171,0.548  c-0.143,0.172-0.353,0.27-0.576,0.27c-0.175,0-0.345-0.062-0.48-0.174L19.5,7.851v3.399c0,0.827-0.673,1.5-1.5,1.5H13.5z   M13.5,11.25H18V6.601l-2.25-1.875L13.5,6.601V11.25z"></path></g></svg>