<svg xmlns="http://www.w3.org/2000/svg" xmlns:xlink="http://www.w3.org/1999/xlink" id="Regular" x="0px" y="0px" viewBox="0 0 24 24" style="enable-background:new 0 0 24 24;" xml:space="preserve"><title>real-estate-action-house-ribbon</title><g>	<path d="M6.5,20.287c-1.241,0-2.25-1.009-2.25-2.25v-7.5c0-0.414,0.336-0.75,0.75-0.75s0.75,0.336,0.75,0.75v7.5  c0,0.414,0.336,0.75,0.75,0.75h3c0.414,0,0.75,0.336,0.75,0.75s-0.336,0.75-0.75,0.75H6.5z"></path>	<path d="M2,9.787c-0.221,0-0.43-0.097-0.573-0.266c-0.13-0.153-0.192-0.347-0.175-0.547c0.017-0.2,0.11-0.381,0.263-0.51  l8.781-7.43c0.407-0.344,0.923-0.534,1.453-0.534s1.046,0.19,1.453,0.534l5.781,4.89c0.153,0.129,0.246,0.31,0.263,0.51  c0.017,0.2-0.045,0.394-0.175,0.547C18.93,7.151,18.721,7.247,18.5,7.247l0,0c-0.177,0-0.349-0.063-0.484-0.177l-5.781-4.89  c-0.136-0.115-0.308-0.179-0.485-0.179s-0.348,0.063-0.484,0.178L2.484,9.61C2.349,9.724,2.177,9.787,2,9.787z"></path>	<path d="M20,5.287c-0.414,0-0.75-0.336-0.75-0.75v-2.25H17c-0.414,0-0.75-0.336-0.75-0.75s0.336-0.75,0.75-0.75h3  c0.414,0,0.75,0.336,0.75,0.75v3C20.75,4.951,20.413,5.287,20,5.287z"></path>	<path d="M21.5,23.247c-0.098,0-0.194-0.019-0.285-0.056l-3.365-1.383l-3.365,1.383c-0.092,0.037-0.188,0.056-0.285,0.056  c-0.16,0-0.319-0.052-0.447-0.148c-0.209-0.155-0.324-0.413-0.299-0.674l0.507-5.262c-0.943-0.983-1.46-2.264-1.46-3.626  c0-2.895,2.355-5.25,5.25-5.25S23,10.642,23,13.537c0,1.258-0.453,2.467-1.279,3.423l0.526,5.465c0.025,0.26-0.09,0.519-0.3,0.674  C21.817,23.196,21.662,23.247,21.5,23.247z M17.85,20.247c0.098,0,0.194,0.019,0.285,0.056l2.499,1.027l-0.31-3.224  c-0.786,0.447-1.664,0.681-2.574,0.681c-0.834,0-1.648-0.197-2.384-0.574l-0.3,3.118l2.499-1.027  C17.656,20.266,17.752,20.247,17.85,20.247z M17.75,9.787c-2.068,0-3.75,1.682-3.75,3.75c0,2.068,1.682,3.75,3.75,3.75  s3.75-1.682,3.75-3.75C21.5,11.47,19.818,9.787,17.75,9.787z"></path>	<path d="M17.75,15.787c-1.241,0-2.25-1.009-2.25-2.25s1.009-2.25,2.25-2.25S20,12.297,20,13.537S18.991,15.787,17.75,15.787z   M17.75,12.787c-0.414,0-0.75,0.336-0.75,0.75s0.336,0.75,0.75,0.75s0.75-0.336,0.75-0.75S18.163,12.787,17.75,12.787z"></path></g></svg>