<svg xmlns="http://www.w3.org/2000/svg" xmlns:xlink="http://www.w3.org/1999/xlink" height="800px" width="800px" id="Layer_1" viewBox="0 0 512 512" xml:space="preserve"><g transform="translate(1 1)">	<polygon style="fill:#FFFFFF;" points="7.828,104.931 502.172,104.931 502.172,502.172 7.828,502.172  "></polygon>	<path style="fill:#0096E6;" d="M511,511H-1V96.103h512V511z M16.655,493.345h476.69V113.759H16.655V493.345z"></path>	<polygon style="fill:#FFFFFF;" points="7.828,51.966 502.172,51.966 502.172,104.931 7.828,104.931  "></polygon>	<path style="fill:#0096E6;" d="M511,113.759H-1V43.138h512V113.759z M16.655,96.103h476.69v-35.31H16.655V96.103z"></path>	<polygon style="fill:#FFFFFF;" points="34.31,7.828 475.69,7.828 475.69,51.966 34.31,51.966  "></polygon>	<path style="fill:#0096E6;" d="M484.517,60.793H25.483V-1h459.034V60.793z M43.138,43.138h423.724V16.655H43.138V43.138z"></path>	<path style="fill:#D0E8F9;" d="M43.138,193.207L43.138,193.207c-19.421,0-35.31-15.89-35.31-35.31v-52.966h70.621v52.966  C78.448,177.317,62.559,193.207,43.138,193.207L43.138,193.207z"></path>	<path style="fill:#0096E6;" d="M43.138,202.034C18.421,202.034-1,182.614-1,157.897V96.103h88.276v61.793  C87.276,182.614,67.855,202.034,43.138,202.034z M16.655,113.759v44.138c0,15.007,11.476,26.483,26.483,26.483  s26.483-11.476,26.483-26.483v-44.138H16.655z"></path>	<path style="fill:#D0E8F9;" d="M113.759,193.207L113.759,193.207c-19.421,0-35.31-15.89-35.31-35.31v-52.966h70.621v52.966  C149.069,177.317,133.179,193.207,113.759,193.207L113.759,193.207z"></path>	<path style="fill:#0096E6;" d="M113.759,202.034c-24.717,0-44.138-19.421-44.138-44.138V96.103h88.276v61.793  C157.897,182.614,138.476,202.034,113.759,202.034z M87.276,113.759v44.138c0,15.007,11.476,26.483,26.483,26.483  s26.483-11.476,26.483-26.483v-44.138H87.276z"></path>	<path style="fill:#D0E8F9;" d="M184.379,193.207L184.379,193.207c-19.421,0-35.31-15.89-35.31-35.31v-52.966h70.621v52.966  C219.69,177.317,203.8,193.207,184.379,193.207L184.379,193.207z"></path>	<path style="fill:#0096E6;" d="M184.379,202.034c-24.717,0-44.138-19.421-44.138-44.138V96.103h88.276v61.793  C228.517,182.614,209.097,202.034,184.379,202.034z M157.897,113.759v44.138c0,15.007,11.476,26.483,26.483,26.483  c15.007,0,26.483-11.476,26.483-26.483v-44.138H157.897z"></path>	<path style="fill:#D0E8F9;" d="M255,193.207L255,193.207c-19.421,0-35.31-15.89-35.31-35.31v-52.966h70.621v52.966  C290.31,177.317,274.421,193.207,255,193.207L255,193.207z"></path>	<path style="fill:#0096E6;" d="M255,202.034c-24.717,0-44.138-19.421-44.138-44.138V96.103h88.276v61.793  C299.138,182.614,279.717,202.034,255,202.034z M228.517,113.759v44.138c0,15.007,11.476,26.483,26.483,26.483  s26.483-11.476,26.483-26.483v-44.138H228.517z"></path>	<path style="fill:#D0E8F9;" d="M325.621,193.207L325.621,193.207c-19.421,0-35.31-15.89-35.31-35.31v-52.966h70.621v52.966  C360.931,177.317,345.041,193.207,325.621,193.207L325.621,193.207z"></path>	<path style="fill:#0096E6;" d="M325.621,202.034c-24.717,0-44.138-19.421-44.138-44.138V96.103h88.276v61.793  C369.759,182.614,350.338,202.034,325.621,202.034z M299.138,113.759v44.138c0,15.007,11.476,26.483,26.483,26.483  s26.483-11.476,26.483-26.483v-44.138H299.138z"></path>	<path style="fill:#D0E8F9;" d="M396.241,193.207L396.241,193.207c-19.421,0-35.31-15.89-35.31-35.31v-52.966h70.621v52.966  C431.552,177.317,415.662,193.207,396.241,193.207L396.241,193.207z"></path>	<path style="fill:#0096E6;" d="M396.241,202.034c-24.717,0-44.138-19.421-44.138-44.138V96.103h88.276v61.793  C440.379,182.614,420.959,202.034,396.241,202.034z M369.759,113.759v44.138c0,15.007,11.476,26.483,26.483,26.483  c15.007,0,26.483-11.476,26.483-26.483v-44.138H369.759z"></path>	<path style="fill:#D0E8F9;" d="M466.862,193.207L466.862,193.207c-19.421,0-35.31-15.89-35.31-35.31v-52.966h70.621v52.966  C502.172,177.317,486.283,193.207,466.862,193.207L466.862,193.207z"></path>	<path style="fill:#0096E6;" d="M466.862,202.034c-24.717,0-44.138-19.421-44.138-44.138V96.103H511v61.793  C511,182.614,491.579,202.034,466.862,202.034z M440.379,113.759v44.138c0,15.007,11.476,26.483,26.483,26.483  s26.483-11.476,26.483-26.483v-44.138H440.379z"></path>	<polygon style="fill:#D0E8F9;" points="122.586,237.345 272.655,237.345 272.655,502.172 122.586,502.172  "></polygon>	<path style="fill:#0096E6;" d="M281.483,511H113.759V228.517h167.724V511z M131.414,493.345h132.414V246.172H131.414V493.345z"></path>	<polygon style="fill:#D0E8F9;" points="272.655,237.345 422.724,237.345 422.724,502.172 272.655,502.172  "></polygon>	<g>		<path style="fill:#0096E6;" d="M431.552,511H263.828V228.517h167.724V511z M281.483,493.345h132.414V246.172H281.483V493.345z"></path>		<path style="fill:#0096E6;" d="M87.276,511H34.31V299.138h17.655v-17.655h17.655v17.655h17.655V511z M51.966,493.345h17.655   V316.793H51.966V493.345z M305.317,428.903l-12.359-12.359l70.621-70.621l12.359,12.359L305.317,428.903z M181.731,428.903   l-12.359-12.359l70.621-70.621l12.359,12.359L181.731,428.903z M305.317,375.938l-12.359-12.359l70.621-70.621l12.359,12.359   L305.317,375.938z M181.731,375.938l-12.359-12.359l70.621-70.621l12.359,12.359L181.731,375.938z M305.317,322.972   l-12.359-12.359l17.655-17.655l12.359,12.359L305.317,322.972z M181.731,322.972l-12.359-12.359l17.655-17.655l12.359,12.359   L181.731,322.972z"></path>	</g>	<path style="fill:#D0E8F9;" d="M87.276,255c0,15.007-11.476,26.483-26.483,26.483S34.31,270.007,34.31,255  s11.476-26.483,26.483-26.483S87.276,239.993,87.276,255L87.276,255z"></path>	<g>		<path style="fill:#0096E6;" d="M60.793,290.31c-19.421,0-35.31-15.89-35.31-35.31s15.89-35.31,35.31-35.31   s35.31,15.89,35.31,35.31S80.214,290.31,60.793,290.31z M60.793,237.345c-9.71,0-17.655,7.945-17.655,17.655   c0,9.71,7.945,17.655,17.655,17.655S78.448,264.71,78.448,255C78.448,245.29,70.503,237.345,60.793,237.345z"></path>		<path style="fill:#0096E6;" d="M43.138,484.517c-2.648,0-4.414-0.883-6.179-2.648c-3.531-3.531-3.531-8.828,0-12.359l35.31-35.31   c3.531-3.531,8.828-3.531,12.359,0c3.531,3.531,3.531,8.828,0,12.359l-35.31,35.31C47.552,483.634,45.786,484.517,43.138,484.517z    M43.138,431.552c-2.648,0-4.414-0.883-6.179-2.648c-3.531-3.531-3.531-8.828,0-12.359l35.31-35.31   c3.531-3.531,8.828-3.531,12.359,0c3.531,3.531,3.531,8.828,0,12.359l-35.31,35.31C47.552,430.669,45.786,431.552,43.138,431.552z    M43.138,378.586c-2.648,0-4.414-0.883-6.179-2.648c-3.531-3.531-3.531-8.828,0-12.359l35.31-35.31   c3.531-3.531,8.828-3.531,12.359,0c3.531,3.531,3.531,8.828,0,12.359l-35.31,35.31C47.552,377.703,45.786,378.586,43.138,378.586z   "></path>	</g></g></svg>